<svg width="316" height="205" viewBox="0 0 316 205" fill="none" xmlns="http://www.w3.org/2000/svg">
<path d="M291.334 55.0398C286.435 55.0398 282.137 54.1849 278.44 52.4749C274.743 50.7188 271.854 48.2925 269.775 45.1961C267.695 42.0535 266.655 38.4256 266.655 34.3125C266.655 30.1532 267.695 26.5253 269.775 23.4289C271.854 20.2863 274.743 17.8601 278.44 16.1501C282.137 14.394 286.435 13.5159 291.334 13.5159C296.233 13.5159 300.531 14.394 304.228 16.1501C307.925 17.8601 310.79 20.2863 312.824 23.4289C314.903 26.5253 315.943 30.1532 315.943 34.3125C315.943 38.4256 314.903 42.0535 312.824 45.1961C310.79 48.2925 307.925 50.7188 304.228 52.4749C300.531 54.1849 296.233 55.0398 291.334 55.0398ZM291.334 46.2359C294.014 46.2359 296.302 45.7507 298.197 44.7802C300.138 43.8096 301.617 42.4463 302.633 40.6902C303.696 38.8878 304.228 36.7619 304.228 34.3125C304.228 31.8169 303.696 29.691 302.633 27.9349C301.617 26.1325 300.138 24.7461 298.197 23.7756C296.302 22.805 294.014 22.3198 291.334 22.3198C288.7 22.3198 286.412 22.805 284.471 23.7756C282.53 24.7461 281.028 26.1325 279.965 27.9349C278.948 29.691 278.44 31.8169 278.44 34.3125C278.44 36.7619 278.948 38.8878 279.965 40.6902C281.028 42.4463 282.53 43.8096 284.471 44.7802C286.412 45.7507 288.7 46.2359 291.334 46.2359Z" fill="white"/>
<path d="M225.856 23.2903V18.1605L234.105 15.4569L239.027 4.1574H245.682V14.5557H263.151V23.2903H245.682V37.64C245.682 40.6902 246.306 42.8391 247.554 44.0869C248.848 45.2885 251.066 45.8893 254.209 45.8893C256.196 45.8893 257.952 45.7045 259.477 45.3347C261.002 44.965 262.458 44.4336 263.844 43.7403V52.7522C262.504 53.3068 260.725 53.8151 258.507 54.2773C256.288 54.7856 254.001 55.0398 251.644 55.0398C247.531 55.0398 244.18 54.3928 241.592 53.0988C239.05 51.7586 237.155 49.91 235.908 47.553C234.706 45.1961 234.105 42.4463 234.105 39.3037V23.2903H225.856Z" fill="white"/>
<path d="M195.564 54L194.178 39.0957L196.05 34.5205L194.317 29.5986L197.02 0.621975H203.536L200.278 34.1739L202.081 54H195.564ZM197.991 34.4512C196.974 38.5181 195.403 42.0997 193.277 45.1961C191.197 48.2463 188.655 50.6263 185.651 52.3363C182.694 54.0462 179.412 54.9012 175.808 54.9012C171.972 54.9012 168.575 54.0462 165.617 52.3363C162.66 50.5801 160.326 48.1769 158.616 45.1268C156.952 42.0304 156.12 38.4718 156.12 34.4512C156.12 30.3843 156.952 26.8257 158.616 23.7756C160.326 20.7254 162.66 18.3453 165.617 16.6354C168.575 14.9254 171.972 14.0705 175.808 14.0705C179.412 14.0705 182.694 14.9254 185.651 16.6354C188.655 18.3453 191.22 20.7254 193.346 23.7756C195.472 26.8257 197.02 30.3843 197.991 34.4512ZM162.636 34.4512C162.636 37.4089 163.237 40.02 164.439 42.2846C165.687 44.5491 167.373 46.3284 169.499 47.6224C171.671 48.8702 174.121 49.4941 176.847 49.4941C179.62 49.4941 182.162 48.8702 184.473 47.6224C186.83 46.3284 188.909 44.5491 190.712 42.2846C192.56 40.02 194.062 37.4089 195.218 34.4512C194.062 31.4934 192.56 28.8823 190.712 26.6178C188.909 24.3532 186.83 22.5971 184.473 21.3493C182.162 20.0553 179.62 19.4083 176.847 19.4083C174.121 19.4083 171.671 20.0553 169.499 21.3493C167.373 22.5971 165.687 24.3532 164.439 26.6178C163.237 28.8823 162.636 31.4934 162.636 34.4512Z" fill="white"/>
<path d="M142.353 54L140.967 39.2344L142.7 34.4512L140.967 29.7373L142.353 14.9717H148.869L147.067 34.4512L148.869 54H142.353ZM144.849 34.4512C143.832 38.5181 142.261 42.0997 140.135 45.1961C138.055 48.2463 135.513 50.6263 132.509 52.3363C129.552 54.0462 126.27 54.9012 122.666 54.9012C118.83 54.9012 115.433 54.0462 112.475 52.3363C109.517 50.5801 107.184 48.1769 105.474 45.1268C103.81 42.0304 102.978 38.4718 102.978 34.4512C102.978 30.3843 103.81 26.8257 105.474 23.7756C107.184 20.7254 109.517 18.3453 112.475 16.6354C115.433 14.9254 118.83 14.0705 122.666 14.0705C126.27 14.0705 129.552 14.9254 132.509 16.6354C135.513 18.3453 138.078 20.7254 140.204 23.7756C142.33 26.8257 143.878 30.3843 144.849 34.4512ZM109.494 34.4512C109.494 37.4089 110.095 40.02 111.297 42.2846C112.544 44.5491 114.231 46.3284 116.357 47.6224C118.529 48.8702 120.979 49.4941 123.705 49.4941C126.478 49.4941 129.02 48.8702 131.331 47.6224C133.688 46.3284 135.767 44.5491 137.57 42.2846C139.418 40.02 140.92 37.4089 142.076 34.4512C140.92 31.4934 139.418 28.8823 137.57 26.6178C135.767 24.3532 133.688 22.5971 131.331 21.3493C129.02 20.0553 126.478 19.4083 123.705 19.4083C120.979 19.4083 118.529 20.0553 116.357 21.3493C114.231 22.5971 112.544 24.3532 111.297 26.6178C110.095 28.8823 109.494 31.4934 109.494 34.4512Z" fill="white"/>
<path d="M74.0706 54.9012C69.4953 54.9012 65.4515 54.0462 61.9392 52.3363C58.4731 50.6263 55.7695 48.2232 53.8285 45.1268C51.8875 42.0304 50.917 38.4718 50.917 34.4512C50.917 30.3843 51.8875 26.8257 53.8285 23.7756C55.7695 20.7254 58.4731 18.3453 61.9392 16.6354C65.4515 14.9254 69.4953 14.0705 74.0706 14.0705C78.692 14.0705 82.7358 14.9254 86.2019 16.6354C89.6681 18.3453 92.3716 20.7254 94.3126 23.7756C96.2999 26.8257 97.2935 30.3843 97.2935 34.4512C97.2935 38.4718 96.2999 42.0304 94.3126 45.1268C92.3716 48.2232 89.6681 50.6263 86.2019 52.3363C82.7358 54.0462 78.692 54.9012 74.0706 54.9012ZM74.0706 49.5634C77.4905 49.5634 80.4482 48.9626 82.9438 47.761C85.4394 46.5132 87.3573 44.7571 88.6975 42.4925C90.084 40.228 90.7772 37.5476 90.7772 34.4512C90.7772 31.401 90.084 28.7436 88.6975 26.4791C87.3573 24.2146 85.4394 22.4584 82.9438 21.2106C80.4482 19.9628 77.4905 19.3389 74.0706 19.3389C70.6969 19.3389 67.7392 19.9628 65.1973 21.2106C62.7017 22.4584 60.7838 24.2146 59.4436 26.4791C58.1034 28.7436 57.4333 31.401 57.4333 34.4512C57.4333 37.5476 58.1034 40.228 59.4436 42.4925C60.7838 44.7571 62.7017 46.5132 65.1973 47.761C67.7392 48.9626 70.6969 49.5634 74.0706 49.5634Z" fill="white"/>
<path d="M5.81404 26.5484H28.1358C31.5557 26.5484 34.2823 25.6935 36.3158 23.9835C38.3954 22.2736 39.4353 19.986 39.4353 17.1206C39.4353 14.2091 38.3954 11.9215 36.3158 10.2577C34.2823 8.5478 31.5557 7.69283 28.1358 7.69283H4.91285L7.82438 4.22672V54H1.30811V2.00842H28.3437C31.8561 2.00842 34.9293 2.65542 37.5636 3.94943C40.1978 5.19723 42.2544 6.95339 43.7332 9.21792C45.2583 11.4824 46.0209 14.1167 46.0209 17.1206C46.0209 20.0784 45.2583 22.6895 43.7332 24.954C42.2544 27.2186 40.1978 28.9978 37.5636 30.2918C34.9293 31.5396 31.8561 32.1635 28.3437 32.1635H5.81404V26.5484ZM17.3215 29.6679H25.3629L47.0607 54H38.95L17.3215 29.6679Z" fill="white"/>
<path d="M127.298 73.0283H127.982C128.413 73.3676 128.816 73.7446 129.275 74.0367C135.868 78.2684 139.661 84.0552 139.521 92.1792C139.408 98.5221 139.493 104.865 139.502 111.208C139.502 111.801 139.558 112.395 139.596 113.187C140.27 112.706 140.738 112.395 141.178 112.065C146.779 107.871 152.361 103.649 157.999 99.5022C158.561 99.097 159.61 98.8613 160.219 99.097C171.13 103.329 177.04 112.037 177.049 123.761V175.032C177.049 175.654 176.993 176.285 176.881 176.898C175.148 186.191 169.247 191.883 160.987 195.587C159.694 196.171 158.777 196.134 157.615 195.257C153.41 192.072 149.121 188.99 144.831 185.851C141.469 188.377 138.191 190.837 134.913 193.287C130.192 196.822 130.014 196.916 125.762 192.656C123.552 190.441 121.745 187.812 119.684 185.276C115.479 188.424 110.974 191.704 106.591 195.144C105.355 196.105 104.474 195.964 103.332 195.21C98.6299 192.081 95.0428 188.123 93.6942 182.439C93.638 182.204 93.5069 181.978 93.3664 181.629C87.0352 186.37 80.8257 190.978 74.6724 195.662C73.7639 196.35 73.0896 196.379 72.0875 195.926C61.2607 191.082 55.4633 183.024 55.5851 170.8C55.7443 155.428 55.5851 140.047 55.6413 124.676C55.66 118.757 52.5787 114.827 47.9801 111.698C49.8813 115.307 50.8554 119.106 50.6681 123.196C50.6212 124.233 50.3028 124.845 49.4692 125.411C46.0882 127.72 42.754 130.095 39.3917 132.442C38.1929 133.28 37.0035 134.11 35.6267 135.062C35.0367 129.953 33.7442 125.373 30.2227 121.782C26.6169 118.097 22.112 116.825 16.9983 116.881V139.076C18.9183 138.605 20.7539 137.993 22.6365 137.738C24.5939 137.474 26.5982 137.408 28.5743 137.512C41.0682 138.172 50.5276 148.171 50.5744 160.725C50.6025 166.898 50.5557 173.071 50.6025 179.245C50.6025 180.281 50.256 180.884 49.4505 181.488C40.5718 188.141 31.6931 194.795 22.88 201.534C21.6062 202.505 20.6041 202.476 19.3397 201.76C14.6007 199.112 10.6202 195.596 7.30476 191.308C4.2609 187.387 2.58444 182.986 2.9778 177.953C3.04336 177.171 3.48355 176.2 4.07359 175.729C6.68663 173.627 9.42142 171.676 12.1187 169.678C13.6454 168.538 15.1813 167.417 16.9515 166.107C17.4759 171.177 19.0213 175.531 22.4304 179.009C25.9426 182.59 30.3257 183.825 35.2895 183.759C35.2895 178.283 35.3364 173.034 35.2708 167.784C35.2146 163.232 33.201 159.547 29.9043 156.531C27.7033 154.514 25.006 153.873 22.2993 154.967C19.9766 155.909 17.8037 157.332 15.7339 158.784C13.6922 160.207 11.8659 161.941 9.87097 163.59C7.79178 160.961 5.73132 158.454 3.79262 155.852C3.29623 155.183 2.95907 154.222 2.95907 153.393C2.90287 144.138 2.91224 134.873 2.92161 125.618C2.92161 116.589 3.04336 107.56 0.776855 98.7106C1.05783 98.8802 1.37626 99.0216 1.62914 99.2289C5.42225 102.301 9.78668 103.696 14.61 103.489C20.9694 103.216 26.8698 101.265 32.2925 97.9472C33.3977 97.2686 34.0064 97.3628 34.9055 98.1828C39.3449 102.235 44.2338 105.845 47.4462 111.189C52.5599 107.362 57.5612 103.706 62.4501 99.9075C63.7801 98.8708 64.6698 98.8708 65.9248 99.9075C72.6307 105.506 75.7588 113.046 75.9742 121.415C76.3957 137.748 76.2177 154.099 76.0211 170.442C75.9555 175.512 78.5123 178.349 82.4553 180.639C85.8363 178.142 89.1986 175.71 92.4954 173.184C92.9262 172.855 93.2259 172.053 93.2259 171.469C93.2634 156.097 93.3008 140.726 93.1884 125.354C93.1697 123.3 92.5703 121.188 91.896 119.219C90.7252 115.769 88.3089 113.225 85.1526 111.104C90.8283 106.882 96.3353 102.782 101.805 98.72C107.977 102.151 112.575 106.788 113.512 113.941C114.046 118.05 113.718 122.272 113.718 126.438C113.718 140.726 113.671 155.014 113.671 169.292C113.671 174.07 115.385 178.132 119.019 181.582V128.116C119.019 119.087 119 110.058 119.028 101.029C119.047 96.6654 118.12 92.6128 115.226 89.2482C114.018 87.8533 112.575 86.6564 111.18 85.3275C111.564 85.0259 112.004 84.6772 112.454 84.3379C117.015 80.9356 121.585 77.5521 126.137 74.1404C126.568 73.8199 126.914 73.3864 127.298 73V73.0283ZM156.641 147.285C156.641 139.746 156.463 132.206 156.707 124.666C156.857 120.114 154.759 117.202 151.2 115.006C150.778 114.742 149.87 114.78 149.467 115.072C146.358 117.277 143.295 119.539 140.289 121.876C139.802 122.253 139.371 123.064 139.371 123.677C139.324 139.557 139.324 155.428 139.371 171.309C139.371 171.884 139.745 172.638 140.186 172.987C143.173 175.343 146.227 177.633 149.289 179.885C149.645 180.149 150.404 180.253 150.75 180.046C154.347 177.869 156.763 175.013 156.679 170.414C156.548 162.704 156.641 154.995 156.641 147.285Z" fill="white"/>
<path d="M197.373 103.96C199.846 91.6608 209.605 84.8656 218.39 77.3353C230.743 86.4396 243.003 95.5061 255.319 104.507C256.405 105.298 256.733 106.099 256.733 107.353C256.696 130.217 256.677 153.082 256.733 175.946C256.742 179.697 255.834 183.146 254.111 186.426C251.085 192.156 246.515 196.576 241.261 200.337C239.378 201.694 237.327 202.872 235.239 203.89C234.555 204.22 233.234 204.088 232.607 203.636C220.834 195.116 209.118 186.52 197.382 177.934V103.96H197.373ZM215.664 165.126C215.833 165.126 216.011 165.117 216.179 165.107C216.339 164.693 216.498 164.288 216.648 163.873C222.398 148.058 227.999 132.187 234.012 116.467C235.36 112.942 234.752 110.529 232.373 108.06C232.148 107.824 231.951 107.57 231.727 107.334C227.203 102.659 221.518 101.057 215.074 101.095C215.018 101.67 214.943 102.047 214.943 102.424C214.943 121.707 214.924 140.99 214.971 160.263C214.971 161.884 215.411 163.505 215.655 165.126H215.664ZM237.917 129.473C237.795 129.454 237.683 129.426 237.561 129.407C236.662 131.857 235.773 134.298 234.873 136.749C230.387 149.076 225.901 161.394 221.462 173.74C221.246 174.344 221.228 175.39 221.612 175.786C226.032 180.338 231.605 181.921 237.917 181.817V129.473Z" fill="white"/>
</svg>
