<svg width="4561" height="2321" viewBox="0 0 4561 2321" fill="none" xmlns="http://www.w3.org/2000/svg">
<path d="M2254.07 0.499937H2266.25C2273.92 6.50764 2281.1 13.1828 2289.28 18.3561C2406.74 93.2848 2474.32 195.749 2471.82 339.599C2469.81 451.908 2471.32 564.218 2471.48 676.528C2471.48 687.041 2472.48 697.554 2473.15 711.572C2485.17 703.061 2493.51 697.554 2501.35 691.714C2601.13 617.452 2700.58 542.691 2801.03 469.264C2811.04 462.088 2829.72 457.916 2840.57 462.088C3034.96 537.017 3140.24 691.213 3140.41 898.811V1806.63C3140.41 1817.65 3139.41 1828.83 3137.41 1839.68C3106.54 2004.22 3001.42 2105.01 2854.25 2170.6C2831.23 2180.94 2814.87 2180.28 2794.18 2164.76C2719.26 2108.35 2642.84 2053.78 2566.42 1998.21C2506.52 2042.93 2448.12 2086.49 2389.72 2129.88C2305.63 2192.46 2302.46 2194.13 2226.7 2118.7C2187.33 2079.48 2155.12 2032.92 2118.41 1988.03C2043.5 2043.77 1963.24 2101.84 1885.15 2162.75C1863.12 2179.78 1847.44 2177.27 1827.08 2163.92C1743.32 2108.52 1679.41 2038.43 1655.39 1937.8C1654.39 1933.63 1652.05 1929.62 1649.55 1923.45C1536.75 2007.39 1426.12 2088.99 1316.5 2171.93C1300.32 2184.11 1288.3 2184.61 1270.45 2176.6C1077.56 2090.83 974.277 1948.15 976.446 1731.7C979.282 1459.53 976.446 1187.18 977.447 914.998C977.781 810.198 922.885 740.609 840.958 685.206C874.83 749.12 892.183 816.373 888.846 888.798C888.012 907.155 882.339 918.002 867.489 928.015C807.253 968.9 747.852 1010.95 687.951 1052.51C666.593 1067.36 645.402 1082.04 620.874 1098.9C610.362 1008.45 587.336 927.347 524.598 863.766C460.358 798.517 380.1 775.988 288.996 776.989V1169.99C323.202 1161.65 355.906 1150.8 389.444 1146.29C424.317 1141.62 460.024 1140.45 495.231 1142.29C717.818 1153.97 886.343 1331.03 887.178 1553.31C887.678 1662.62 886.844 1771.92 887.678 1881.23C887.678 1899.59 881.505 1910.27 867.155 1920.95C708.975 2038.76 550.794 2156.58 393.782 2275.9C371.09 2293.09 353.236 2292.59 330.71 2279.9C246.281 2233.01 175.366 2170.76 116.299 2094.83C62.0707 2025.41 32.2033 1947.48 39.2114 1858.37C40.3793 1844.52 48.2216 1827.33 58.7336 1818.98C105.287 1781.77 154.009 1747.22 202.064 1711.85C229.261 1691.65 256.626 1671.8 288.162 1648.6C297.506 1738.38 325.037 1815.48 385.773 1877.06C448.344 1940.47 526.433 1962.33 614.867 1961.16C614.867 1864.21 615.702 1771.26 614.534 1678.3C613.532 1597.7 577.658 1532.45 518.925 1479.05C479.713 1443.34 431.659 1431.99 383.437 1451.35C342.056 1468.04 303.346 1493.23 266.47 1518.93C230.096 1544.13 197.559 1574.84 162.018 1604.04C124.976 1557.48 88.2673 1513.09 53.7279 1467.03C44.8845 1455.19 38.8776 1438.16 38.8776 1423.48C37.8765 1259.6 38.0433 1095.56 38.2102 931.686C38.377 771.816 40.3793 611.946 0 455.246C5.00575 458.25 10.6789 460.753 15.1839 464.425C82.761 518.827 160.516 543.526 246.448 539.854C359.743 535.015 464.863 500.471 561.473 441.729C581.162 429.714 592.008 431.383 608.026 445.901C687.116 517.659 774.215 581.574 831.447 676.194C922.551 608.441 1011.65 543.692 1098.75 476.44C1122.45 458.083 1138.3 458.083 1160.66 476.44C1280.13 575.566 1335.86 709.069 1339.69 857.258C1347.2 1146.46 1344.03 1436 1340.53 1725.36C1339.36 1815.14 1384.91 1865.38 1455.16 1905.93C1515.39 1861.7 1575.3 1818.65 1634.03 1773.93C1641.7 1768.08 1647.04 1753.9 1647.04 1743.55C1647.71 1471.37 1648.38 1199.19 1646.38 927.014C1646.04 890.634 1635.36 853.253 1623.35 818.375C1602.49 757.298 1559.44 712.24 1503.21 674.692C1604.33 599.93 1702.44 527.338 1799.88 455.413C1909.84 516.157 1991.77 598.262 2008.46 724.923C2017.97 797.683 2012.13 872.444 2012.13 946.205C2012.13 1199.19 2011.29 1452.18 2011.29 1705C2011.29 1789.61 2041.83 1861.54 2106.57 1922.61V975.909C2106.57 816.039 2106.23 656.169 2106.73 496.299C2107.07 419.034 2090.55 347.276 2038.99 287.7C2017.47 263.001 1991.77 241.808 1966.91 218.278C1973.75 212.938 1981.59 206.763 1989.6 200.756C2070.86 140.512 2152.29 80.6026 2233.38 20.1924C2241.05 14.5185 2247.23 6.84201 2254.07 0L2254.07 0.499937ZM2776.83 1315.34C2776.83 1181.84 2773.66 1048.33 2778 914.831C2780.67 834.228 2743.29 782.663 2679.89 743.78C2672.38 739.107 2656.19 739.775 2649.02 744.948C2593.62 783.998 2539.06 824.049 2485.5 865.435C2476.82 872.11 2469.15 886.461 2469.15 897.309C2468.31 1178.5 2468.31 1459.52 2469.15 1740.72C2469.15 1750.9 2475.82 1764.25 2483.66 1770.42C2536.89 1812.14 2591.29 1852.69 2645.85 1892.58C2652.19 1897.25 2665.7 1899.08 2671.88 1895.41C2735.95 1856.86 2779 1806.3 2777.5 1724.86C2775.16 1588.36 2776.83 1451.85 2776.83 1315.34Z" fill="#F7E752"/>
<path d="M3502.49 548.198C3546.54 330.42 3720.41 210.101 3876.92 76.764C4097 237.969 4315.42 398.507 4534.83 557.877C4554.19 571.895 4560.03 586.079 4560.03 608.274C4559.36 1013.12 4559.03 1417.97 4560.03 1822.82C4560.2 1889.24 4544.01 1950.32 4513.31 2008.39C4459.42 2109.85 4377.99 2188.12 4284.38 2254.7C4250.84 2278.73 4214.3 2299.59 4177.09 2317.62C4164.91 2323.46 4141.39 2321.12 4130.21 2313.11C3920.47 2162.25 3711.73 2010.06 3502.66 1858.03V548.531L3502.49 548.198ZM3828.36 1631.24C3831.37 1631.24 3834.54 1631.08 3837.54 1630.91C3840.38 1623.57 3843.21 1616.39 3845.88 1609.05C3948.33 1329.03 4048.11 1048 4155.24 769.647C4179.26 707.234 4168.42 664.513 4126.04 620.79C4122.03 616.618 4118.53 612.113 4114.52 607.941C4033.93 525.169 3932.65 496.799 3817.85 497.467C3816.85 507.646 3815.51 514.321 3815.51 520.997C3815.51 862.431 3815.18 1203.87 3816.02 1545.13C3816.02 1573.84 3823.86 1602.54 3828.2 1631.24H3828.36ZM4224.81 999.94C4222.65 999.606 4220.64 999.105 4218.47 998.771C4202.46 1042.16 4186.6 1085.38 4170.59 1128.77C4090.66 1347.05 4010.74 1565.16 3931.65 1783.77C3927.81 1794.45 3927.48 1812.98 3934.32 1819.98C4013.07 1900.59 4112.35 1928.62 4224.81 1926.79V999.94Z" fill="#F7E752"/>
</svg>
