<svg width="165" height="84" viewBox="0 0 165 84" fill="none" xmlns="http://www.w3.org/2000/svg">
<path d="M81.0826 0.0181197H81.5208C81.7969 0.235557 82.055 0.477153 82.3491 0.66439C86.5746 3.37631 89.0054 7.08482 88.9154 12.2912C88.8434 16.3561 88.8974 20.4209 88.9034 24.4858C88.9034 24.8663 88.9394 25.2468 88.9634 25.7542C89.3956 25.4461 89.6957 25.2468 89.9778 25.0354C93.5671 22.3477 97.1443 19.6418 100.758 16.9842C101.118 16.7245 101.79 16.5735 102.18 16.7245C109.173 19.4364 112.96 25.0173 112.966 32.531V65.3881C112.966 65.7867 112.93 66.1914 112.858 66.584C111.747 72.5393 107.966 76.1874 102.672 78.5611C101.844 78.9356 101.256 78.9114 100.512 78.3497C97.8166 76.3082 95.0676 74.3332 92.3186 72.3219C90.1638 73.9406 88.0631 75.517 85.9624 77.0874C82.9373 79.3523 82.8233 79.4127 80.0983 76.6827C78.6818 75.2633 77.5234 73.5782 76.2029 71.9535C73.508 73.9708 70.6209 76.0727 67.812 78.2772C67.0197 78.8933 66.4555 78.8027 65.7232 78.3195C62.7102 76.3143 60.4113 73.7775 59.547 70.1354C59.511 69.9844 59.427 69.8395 59.337 69.616C55.2795 72.6541 51.3001 75.6076 47.3567 78.6094C46.7745 79.0503 46.3424 79.0685 45.7001 78.7785C38.7617 75.674 35.0464 70.5099 35.1244 62.6761C35.2264 52.8251 35.1244 42.9679 35.1604 33.1168C35.1724 29.3238 33.1977 26.8051 30.2507 24.7999C31.4691 27.1132 32.0933 29.5472 31.9733 32.1686C31.9433 32.833 31.7392 33.2255 31.205 33.5879C29.0383 35.0677 26.9015 36.5898 24.7467 38.0937C23.9785 38.6313 23.2162 39.1628 22.3339 39.7728C21.9558 36.4992 21.1275 33.5638 18.8707 31.2626C16.5599 28.901 13.6728 28.0856 10.3957 28.1218V42.3458C11.6261 42.0438 12.8025 41.6512 14.0089 41.4881C15.2634 41.319 16.5478 41.2767 17.8143 41.3432C25.8211 41.766 31.8833 48.1743 31.9133 56.2195C31.9313 60.1756 31.9013 64.1318 31.9313 68.0879C31.9313 68.7523 31.7092 69.1389 31.193 69.5254C25.503 73.7896 19.813 78.0538 14.165 82.3723C13.3487 82.9944 12.7065 82.9763 11.8962 82.5173C8.85913 80.82 6.30823 78.5672 4.18348 75.819C2.23279 73.3064 1.15841 70.4858 1.4105 67.2604C1.45251 66.7591 1.73461 66.137 2.11275 65.835C3.78734 64.4881 5.53996 63.2379 7.26857 61.9574C8.24691 61.2266 9.23126 60.5078 10.3657 59.6683C10.7018 62.9177 11.6921 65.7082 13.8769 67.9369C16.1277 70.2321 18.9367 71.0233 22.1178 70.981C22.1178 67.4718 22.1478 64.1076 22.1058 60.7434C22.0698 57.8261 20.7793 55.4645 18.6666 53.5317C17.2561 52.2392 15.5275 51.8285 13.7929 52.5291C12.3043 53.1331 10.9119 54.0451 9.58539 54.9753C8.27692 55.8873 7.10651 56.9986 5.82806 58.0556C4.49559 56.3705 3.17512 54.7639 1.93268 53.0969C1.61457 52.668 1.39849 52.0519 1.39849 51.5204C1.36248 45.5892 1.36848 39.652 1.37449 33.7208C1.37449 27.9346 1.45251 22.1484 0 16.4769C0.180064 16.5856 0.384136 16.6762 0.546193 16.8091C2.97705 18.7781 5.77404 19.672 8.86513 19.5391C12.9406 19.364 16.7219 18.1137 20.1971 15.9876C20.9054 15.5528 21.2955 15.6132 21.8717 16.1386C24.7167 18.7358 27.8498 21.0491 29.9086 24.4737C33.1857 22.0215 36.3909 19.678 39.524 17.2439C40.3763 16.5796 40.9465 16.5796 41.7507 17.2439C46.0483 20.8316 48.053 25.6636 48.191 31.027C48.4611 41.4942 48.3471 51.9734 48.221 62.4466C48.179 65.6961 49.8176 67.5141 52.3445 68.9818C54.5113 67.3812 56.666 65.8229 58.7788 64.2042C59.0549 63.9929 59.2469 63.4795 59.2469 63.105C59.2709 53.2539 59.2949 43.4028 59.2229 33.5517C59.2109 32.235 58.8268 30.8821 58.3946 29.6197C57.6444 27.4091 56.0958 25.7783 54.0731 24.4194C57.7104 21.7135 61.2396 19.0861 64.7449 16.4829C68.7003 18.6814 71.6473 21.6531 72.2475 26.2374C72.5896 28.8708 72.3796 31.5767 72.3796 34.2463C72.3796 43.4028 72.3496 52.5593 72.3496 61.7098C72.3496 64.772 73.4479 67.3752 75.7768 69.5858V35.3214C75.7768 29.5352 75.7648 23.7489 75.7828 17.9627C75.7948 15.1662 75.2006 12.5691 73.3459 10.4128C72.5716 9.5189 71.6473 8.75183 70.753 7.9002C70.9991 7.70693 71.2812 7.48345 71.5693 7.26601C74.4923 5.0856 77.4214 2.91728 80.3384 0.730829C80.6145 0.525472 80.8366 0.247636 81.0826 0V0.0181197ZM99.8873 47.6066C99.8873 42.7746 99.7732 37.9427 99.9293 33.1108C100.025 30.1935 98.6809 28.3272 96.4001 26.9199C96.13 26.7508 95.5478 26.7749 95.2897 26.9622C93.297 28.3755 91.3343 29.8251 89.4076 31.323C89.0955 31.5646 88.8194 32.084 88.8194 32.4766C88.7894 42.6538 88.7894 52.8251 88.8194 63.0023C88.8194 63.3707 89.0595 63.8539 89.3416 64.0774C91.2562 65.5874 93.2129 67.0551 95.1756 68.4986C95.4037 68.6677 95.8899 68.7342 96.112 68.6013C98.4168 67.2061 99.9653 65.376 99.9113 62.4285C99.8273 57.4879 99.8873 52.5472 99.8873 47.6066Z" fill="white"/>
<path d="M125.99 19.8411C127.575 11.959 133.829 7.60421 139.459 2.77832C147.376 8.61287 155.233 14.4233 163.125 20.1914C163.822 20.6987 164.032 21.2121 164.032 22.0154C164.008 36.6683 163.996 51.3211 164.032 65.9739C164.038 68.3778 163.455 70.5884 162.351 72.6903C160.412 76.3625 157.483 79.1953 154.116 81.6052C152.91 82.4749 151.595 83.2299 150.257 83.8822C149.819 84.0936 148.972 84.0091 148.57 83.7192C141.026 78.2591 133.517 72.7507 125.996 67.2483V19.8411H125.99ZM137.712 59.0401C137.82 59.0401 137.934 59.034 138.042 59.028C138.145 58.7623 138.247 58.5025 138.343 58.2368C142.028 48.1018 145.617 37.9306 149.471 27.856C150.335 25.5971 149.945 24.0509 148.42 22.4684C148.276 22.3174 148.15 22.1544 148.006 22.0034C145.107 19.0076 141.464 17.9808 137.334 18.0049C137.298 18.3734 137.25 18.615 137.25 18.8566C137.25 31.2142 137.238 43.5719 137.268 55.9235C137.268 56.9624 137.55 58.0012 137.706 59.0401H137.712ZM151.973 36.1911C151.895 36.179 151.823 36.1609 151.745 36.1488C151.169 37.7192 150.599 39.2835 150.023 40.8539C147.148 48.7541 144.273 56.6483 141.428 64.5606C141.29 64.9471 141.278 65.6175 141.524 65.8712C144.357 68.7885 147.928 69.8032 151.973 69.7368V36.1911Z" fill="white"/>
</svg>
