<svg width="203" height="44" viewBox="0 0 203 44" fill="none" xmlns="http://www.w3.org/2000/svg">
<g clip-path="url(#clip0_206_23375)">
<path fill-rule="evenodd" clip-rule="evenodd" d="M55.1559 37.0983L57.0645 28.1212C58.1129 28.244 59.4788 28.3588 61.3793 28.3588C65.82 28.3588 69.4445 27.1455 71.9629 24.9955C74.4848 22.8422 75.88 19.7638 75.88 16.0746C75.88 13.5723 75.2123 11.4683 73.9555 9.8303C72.6985 8.19234 70.8636 7.03532 68.5549 6.40744C67.2117 6.04128 65.7078 5.85303 64.061 5.85303C62.3167 5.85303 58.9029 6.32136 56.8447 6.66916L56.7121 6.69096L50.2324 37.0996H55.1548L55.1559 37.0983ZM61.1663 23.8293C60.4976 23.8293 59.9025 23.819 59.3551 23.7938C58.8724 23.7708 58.4269 23.7364 57.9996 23.686L60.7765 10.6613C61.6628 10.5351 62.9083 10.3813 64.189 10.3813C64.9791 10.3813 65.6999 10.4455 66.3516 10.5695C67.6061 10.8083 68.6036 11.2685 69.3504 11.9136C70.4794 12.8893 71.0585 14.3126 71.0585 16.117C71.0585 18.43 70.2288 20.348 68.5934 21.692C66.9534 23.0408 64.4803 23.8293 61.1663 23.8293Z" fill="white"/>
<path d="M98.4923 37.0984L105.033 6.39941H100.109L93.5688 37.0984H98.4935H98.4923Z" fill="white"/>
<path fill-rule="evenodd" clip-rule="evenodd" d="M160.658 17.4852L163.04 6.39935H167.969L163.65 26.5245C163.266 28.2876 162.93 30.2894 162.93 31.4693C162.93 31.9527 162.994 32.3222 163.121 32.5643C163.182 32.6826 163.256 32.7653 163.341 32.8193C163.425 32.8732 163.532 32.9054 163.67 32.9054C163.849 32.9054 164.071 32.8226 164.333 32.6471C164.593 32.4736 164.873 32.2211 165.163 31.9124C165.731 31.3087 166.319 30.5075 166.841 29.7097C166.838 29.6098 166.837 29.5089 166.837 29.4056C166.837 26.1135 168.012 22.7355 170.052 20.1781C172.093 17.6196 175.009 15.8725 178.486 15.8725C180.897 15.8725 182.825 16.7184 184.149 18.1681C185.471 19.6156 186.175 21.6461 186.175 23.9866C186.175 29.5778 182.825 35.4099 177.585 37.0881C176.624 37.3956 175.592 37.5632 174.527 37.5632C173.462 37.5632 172.49 37.3979 171.622 37.0858C170.123 36.5497 168.94 35.5798 168.127 34.2942C167.119 35.5695 165.995 36.5416 164.739 37.0811C164.014 37.3945 163.234 37.5632 162.436 37.5632C161.638 37.5632 160.928 37.3991 160.326 37.0742C159.048 36.3844 158.307 34.9989 158.206 33.0533C157.083 34.8991 155.567 36.3684 153.626 37.0858C152.792 37.3933 151.885 37.5609 150.899 37.5609C149.977 37.5609 149.131 37.3933 148.373 37.0823C146.785 36.4325 145.598 35.1676 144.904 33.5572C143.846 35.3066 142.695 36.4763 141.397 37.0788C140.701 37.4026 139.953 37.5609 139.194 37.5609C138.434 37.5609 137.76 37.3923 137.191 37.0719C135.974 36.3867 135.274 35.0437 135.144 33.3232C134.097 35.0161 132.695 36.3948 130.864 37.0846C130.048 37.3923 129.152 37.5609 128.168 37.5609C127.25 37.5609 126.398 37.3956 125.629 37.0834C124.673 36.6954 123.923 36.0595 123.349 35.2664C122.326 36.2846 121.13 37.0271 119.848 37.4255C118.42 37.8686 116.852 37.8846 115.388 37.2786C113.904 36.6634 112.724 35.4902 111.973 33.9143C111.589 33.1072 111.201 32.1489 110.828 31.2249C110.724 30.9655 110.62 30.7083 110.518 30.4581C110.291 29.9048 110.064 29.3631 109.83 28.8409C109.299 28.951 108.789 29.0255 108.308 29.0693L106.593 37.119H101.511L108.084 6.26392H113.168L109.522 23.3747C112.086 22.6275 115.622 20.5132 118.052 15.2928L122.865 17.5908C120.62 22.4152 117.512 25.3733 114.468 27.0834C114.687 27.5828 114.892 28.0741 115.083 28.5423C115.21 28.8533 115.33 29.1496 115.445 29.433C115.805 30.3238 116.111 31.0836 116.424 31.738C116.7 32.3176 117.02 32.5471 117.26 32.6458C117.521 32.7537 117.902 32.7952 118.402 32.6402C119.409 32.3267 120.739 31.2214 121.396 29.1025L121.878 26.9664C122.066 25.5602 122.421 24.2803 122.871 23.338C125.023 18.8316 129.323 15.7853 134.084 15.7853C135.634 15.7853 137.252 16.1606 138.667 16.7276C140.08 17.2947 141.307 18.0603 142.067 18.8546L142.141 18.9327L142.118 19.0383C141.967 19.7063 141.778 20.5212 141.57 21.4154C141.234 22.864 140.849 24.5214 140.5 26.1067C140.219 27.3876 139.963 28.617 139.776 29.6432C139.589 30.6751 139.477 31.4865 139.477 31.94C139.477 32.2819 139.547 32.5265 139.654 32.6803C139.753 32.8249 139.895 32.9018 140.088 32.9018C140.36 32.9018 140.682 32.7514 141.053 32.4037C141.423 32.0583 141.821 31.5382 142.242 30.8506C143.084 29.4755 144.004 27.461 144.978 24.9164C146.775 19.4571 151.388 15.8713 156.011 15.8713C158.132 15.8713 159.61 16.5072 160.662 17.4829L160.658 17.4852ZM135.849 24.7592L136.75 20.9436C135.91 20.442 134.957 20.1023 133.741 20.1023C131.626 20.1023 129.764 21.2845 128.423 23.0465C127.081 24.8083 126.277 27.1317 126.277 29.3654C126.277 30.4971 126.547 31.4153 127.038 32.0467C127.524 32.6724 128.242 33.035 129.187 33.035C130.604 33.035 131.957 32.3108 133.116 30.9081C134.277 29.5031 135.236 27.4278 135.849 24.7602V24.7592ZM159.559 22.4841L159.791 21.3602C158.937 20.6922 157.775 20.1895 156.262 20.1895C154.235 20.1895 152.446 21.3385 151.158 23.0718C149.869 24.8061 149.095 27.1075 149.095 29.3654C149.095 30.5419 149.366 31.4602 149.841 32.0811C150.311 32.6952 150.997 33.0361 151.877 33.0361C153.491 33.0361 155.068 31.9962 156.422 30.1344C157.774 28.2761 158.883 25.628 159.559 22.4851V22.4841ZM172.521 31.9239C173.043 32.6058 173.855 33.0338 175.036 33.0338C176.733 33.0338 178.287 31.9089 179.429 30.2286C180.567 28.5515 181.267 26.3546 181.267 24.2897C181.267 23.1762 181.016 22.204 180.489 21.5142C179.968 20.8322 179.156 20.403 177.973 20.403C176.277 20.403 174.723 21.5382 173.582 23.2243C172.444 24.9071 171.743 27.1052 171.743 29.1496C171.743 30.2631 171.994 31.234 172.521 31.9239Z" fill="white"/>
<path d="M202.902 31.319L202.787 31.4864C201.885 32.8225 200.657 34.3125 199.82 35.0597C199.137 35.6727 198.352 36.242 197.486 36.6829C196.441 37.2177 195.275 37.5621 194.028 37.5621C192.968 37.5621 192.053 37.3715 191.28 37.0179C189.185 36.0594 188.21 33.9302 188.21 31.3408C188.21 30.3157 188.326 29.3172 188.456 28.5331V28.5263L188.46 28.5091C188.507 28.2346 188.553 27.9856 188.599 27.7721L190.123 20.6176H186.753L187.671 16.304H191.017L192.803 8.0166H197.728L195.934 16.304H201.901L200.984 20.6176H194.998L193.456 27.9408C193.452 27.9568 193.451 27.9717 193.447 27.9867V27.9925L193.445 27.9948C193.442 28.012 193.44 28.0282 193.436 28.0452H193.435L193.433 28.0614C193.231 29.091 193.076 30.0173 193.076 30.7817C193.076 31.49 193.22 32.0352 193.475 32.3968C193.724 32.7503 194.09 32.9476 194.581 32.9476C195.145 32.9476 195.658 32.7435 196.234 32.329C196.812 31.9111 197.439 31.2902 198.227 30.473C198.288 30.403 198.675 29.929 199.093 29.4147L199.43 29.0014L202.902 31.319Z" fill="white"/>
<path fill-rule="evenodd" clip-rule="evenodd" d="M86.0669 15.8735C82.5908 15.8735 79.6745 17.6195 77.6335 20.179C75.5933 22.7365 74.418 26.1134 74.418 29.4065C74.418 33.0899 76.134 35.9895 79.2066 37.088C80.0735 37.399 81.0437 37.5631 82.1081 37.5631C83.1723 37.5631 84.2013 37.3967 85.1603 37.0903C90.4033 35.4156 93.7581 29.581 93.7581 23.9877C93.7581 21.6472 93.0532 19.6166 91.7304 18.1693C90.4056 16.7206 88.4777 15.8735 86.0669 15.8735ZM82.6191 33.0337C81.4382 33.0337 80.6267 32.6044 80.1043 31.9237C79.576 31.2339 79.3267 30.2629 79.3267 29.1495C79.3267 27.1051 80.0272 24.9082 81.1651 23.2242C82.3063 21.5381 83.8603 20.4029 85.557 20.4029C86.739 20.4029 87.5505 20.8321 88.0718 21.514C88.6001 22.2039 88.8494 23.1761 88.8494 24.2895C88.8494 26.3545 88.1489 28.5514 87.011 30.2285C85.8708 31.9088 84.3158 33.0337 82.6191 33.0337Z" fill="white"/>
<path d="M22.3524 9.20685C26.5852 9.20685 30.0163 7.18463 30.0163 4.6901C30.0163 2.19556 26.5852 0.17334 22.3524 0.17334C18.1198 0.17334 14.6885 2.19556 14.6885 4.6901C14.6885 7.18463 18.1198 9.20685 22.3524 9.20685Z" fill="#FF2670"/>
<path d="M22.3524 43.222C26.5852 43.222 30.0163 41.1998 30.0163 38.7052C30.0163 36.2107 26.5852 34.1885 22.3524 34.1885C18.1198 34.1885 14.6885 36.2107 14.6885 38.7052C14.6885 41.1998 18.1198 43.222 22.3524 43.222Z" fill="#FF2670"/>
<path d="M11.6706 15.4519C13.7869 11.7396 13.7738 7.71925 11.6412 6.4723C9.50862 5.22535 6.06417 7.22397 3.94782 10.9363C1.83148 14.6487 1.84465 18.6689 3.97724 19.9159C6.10983 21.163 9.55426 19.1643 11.6706 15.4519Z" fill="#FF2670"/>
<path d="M40.7601 32.4592C42.8765 28.7469 42.8629 24.7263 40.7298 23.4791C38.5967 22.2318 35.1518 24.2301 33.0354 27.9425C30.919 31.6548 30.9327 35.6754 33.0658 36.9228C35.1989 38.1699 38.6438 36.1716 40.7601 32.4592Z" fill="#FF2670"/>
<path d="M11.6409 36.9239C13.774 35.6767 13.7877 31.6562 11.6713 27.9438C9.55495 24.2314 6.11008 22.2331 3.97694 23.4803C1.84383 24.7276 1.83022 28.7482 3.94656 32.4605C6.06291 36.1729 9.5078 38.1713 11.6409 36.9239Z" fill="#FF2670"/>
<path d="M40.7293 19.9149C42.8625 18.6677 42.8761 14.6471 40.7597 10.9347C38.6434 7.22236 35.1984 5.22399 33.0653 6.47126C30.9322 7.71853 30.9186 11.7391 33.035 15.4515C35.1513 19.1639 38.5962 21.1622 40.7293 19.9149Z" fill="#FF2670"/>
</g>
<defs>
<clipPath id="clip0_206_23375">
<rect width="203" height="43.2243" fill="white"/>
</clipPath>
</defs>
</svg>
