<svg width="214" height="113" viewBox="0 0 214 113" fill="none" xmlns="http://www.w3.org/2000/svg">
<path d="M105.351 0.0243754H105.92C106.279 0.31688 106.614 0.641885 106.996 0.893763C112.487 4.54194 115.645 9.53077 115.528 16.5346C115.435 22.0028 115.505 27.471 115.513 32.9392C115.513 33.4511 115.559 33.963 115.59 34.6455C116.152 34.2311 116.542 33.963 116.908 33.6786C121.572 30.0629 126.22 26.4229 130.915 22.8478C131.383 22.4985 132.256 22.2953 132.763 22.4985C141.848 26.1466 146.769 33.6543 146.777 43.7619V87.9626C146.777 88.4988 146.73 89.0432 146.637 89.5713C145.194 97.5827 140.281 102.49 133.402 105.683C132.326 106.187 131.562 106.155 130.595 105.399C127.093 102.653 123.522 99.9959 119.95 97.2902C117.15 99.4677 114.421 101.588 111.691 103.701C107.761 106.748 107.613 106.829 104.072 103.157C102.232 101.247 100.726 98.9802 99.0107 96.7946C95.5092 99.5084 91.7581 102.336 88.1083 105.302C87.0789 106.13 86.3458 106.008 85.3944 105.358C81.4795 102.661 78.4927 99.2484 77.3697 94.3489C77.3229 94.1458 77.2137 93.9508 77.0967 93.6501C71.8249 97.7371 66.6544 101.71 61.5308 105.748C60.7743 106.342 60.2128 106.366 59.3784 105.976C50.3632 101.8 45.5359 94.8527 45.6373 84.3144C45.7698 71.0623 45.6373 57.8021 45.6841 44.55C45.6997 39.4475 43.1339 36.0593 39.3048 33.3617C40.8879 36.4737 41.699 39.7481 41.543 43.2744C41.504 44.1682 41.2389 44.6963 40.5448 45.1838C37.7295 47.1745 34.9532 49.222 32.1535 51.2451C31.1553 51.9683 30.1649 52.6833 29.0185 53.5039C28.5272 49.1001 27.451 45.1513 24.5187 42.0556C21.5163 38.8787 17.7652 37.7818 13.5071 37.8306V56.9652C15.1058 56.559 16.6344 56.0308 18.2019 55.8115C19.8318 55.584 21.5007 55.5271 23.1462 55.6165C33.5495 56.1852 41.426 64.806 41.465 75.6286C41.4884 80.9506 41.4494 86.2725 41.4884 91.5945C41.4884 92.4883 41.1999 93.0083 40.5292 93.5283C33.1362 99.2646 25.7431 105.001 18.4046 110.81C17.344 111.647 16.5096 111.623 15.4568 111.005C11.5107 108.722 8.1963 105.692 5.43561 101.995C2.90107 98.6146 1.50513 94.8202 1.83267 90.4813C1.88726 89.807 2.25379 88.9701 2.7451 88.5638C4.9209 86.7519 7.19809 85.07 9.44408 83.3475C10.7152 82.3644 11.9942 81.3975 13.4681 80.2681C13.9049 84.6394 15.1916 88.3932 18.0303 91.3914C20.9548 94.4789 24.6045 95.5433 28.7378 95.4864C28.7378 90.7657 28.7767 86.24 28.7222 81.7143C28.6754 77.7899 26.9987 74.613 24.2536 72.0129C22.4209 70.2742 20.1749 69.7217 17.9211 70.6642C15.9871 71.4767 14.1778 72.7036 12.4543 73.9548C10.7542 75.1817 9.23351 76.6768 7.57242 78.0987C5.84113 75.8318 4.12545 73.6705 2.51114 71.4279C2.09782 70.8511 1.81707 70.0223 1.81707 69.3073C1.77028 61.3284 1.77808 53.3414 1.78587 45.3626C1.78587 37.5787 1.88726 29.7948 0 22.1653C0.233957 22.3116 0.499109 22.4335 0.70967 22.6122C3.86809 25.261 7.50223 26.4635 11.5185 26.2848C16.8137 26.0491 21.7268 24.3672 26.2422 21.5072C27.1624 20.9222 27.6693 21.0034 28.418 21.7103C32.1145 25.2041 36.1854 28.316 38.8603 32.923C43.1183 29.6242 47.2828 26.4716 51.3536 23.1972C52.461 22.3035 53.2019 22.3035 54.2469 23.1972C59.8307 28.0235 62.4354 34.5236 62.6148 41.7387C62.9657 55.8196 62.8175 69.9167 62.6538 84.0056C62.5992 88.3769 64.7282 90.8226 68.0114 92.797C70.8267 90.6438 73.6264 88.5476 76.3715 86.37C76.7302 86.0857 76.9797 85.395 76.9797 84.8913C77.0109 71.6392 77.0421 58.3871 76.9486 45.135C76.933 43.3638 76.4338 41.5437 75.8724 39.8456C74.8975 36.8718 72.8855 34.678 70.2574 32.8499C74.9833 29.2098 79.5689 25.6754 84.1232 22.1735C89.2625 25.131 93.0916 29.1286 93.8715 35.2955C94.316 38.8381 94.043 42.4781 94.043 46.0694C94.043 58.3871 94.004 70.7048 94.004 83.0144C94.004 87.1338 95.4312 90.6357 98.457 93.6095V47.5157C98.457 39.7318 98.4414 31.948 98.4648 24.1641C98.4804 20.4022 97.7084 16.9084 95.2986 14.0077C94.2926 12.8052 93.0916 11.7733 91.9296 10.6277C92.2494 10.3677 92.6159 10.067 92.9902 9.77452C96.7881 6.84135 100.594 3.92443 104.384 0.98314C104.743 0.706886 105.031 0.33313 105.351 0V0.0243754ZM129.784 64.0422C129.784 57.5421 129.636 51.042 129.839 44.5419C129.963 40.6175 128.216 38.1068 125.253 36.2137C124.902 35.9862 124.146 36.0187 123.81 36.2705C121.221 38.1718 118.671 40.1218 116.168 42.1369C115.762 42.4619 115.403 43.1606 115.403 43.6888C115.364 57.3796 115.364 71.0623 115.403 84.7531C115.403 85.2488 115.715 85.8988 116.082 86.1994C118.57 88.2307 121.112 90.2051 123.662 92.147C123.958 92.3745 124.59 92.4639 124.879 92.2851C127.873 90.4082 129.885 87.9463 129.815 83.9813C129.706 77.3349 129.784 70.6886 129.784 64.0422Z" fill="#2DF02D"/>
<path d="M163.696 26.691C165.755 16.0877 173.881 10.2295 181.196 3.73755C191.483 11.5864 201.691 19.4028 211.946 27.1623C212.851 27.8448 213.124 28.5354 213.124 29.6161C213.092 49.3276 213.077 69.0391 213.124 88.7507C213.131 91.9845 212.375 94.9583 210.94 97.7858C208.421 102.726 204.615 106.537 200.24 109.778C198.673 110.949 196.965 111.964 195.226 112.842C194.657 113.126 193.557 113.012 193.035 112.622C183.232 105.277 173.476 97.8671 163.704 90.4651V26.691H163.696ZM178.927 79.423C179.067 79.423 179.215 79.4149 179.356 79.4068C179.488 79.0493 179.621 78.6999 179.746 78.3424C184.534 64.7085 189.198 51.0258 194.204 37.473C195.327 34.4343 194.82 32.3542 192.84 30.2254C192.652 30.0223 192.489 29.8029 192.301 29.5998C188.535 25.5697 183.801 24.1885 178.436 24.221C178.389 24.7166 178.326 25.0416 178.326 25.3666C178.326 41.9906 178.311 58.6146 178.35 75.2305C178.35 76.628 178.716 78.0255 178.919 79.423H178.927ZM197.456 48.6857C197.355 48.6695 197.261 48.6451 197.16 48.6288C196.411 50.7414 195.67 52.8458 194.922 54.9583C191.186 65.586 187.451 76.2055 183.754 86.8494C183.575 87.3694 183.559 88.2713 183.879 88.6126C187.56 92.537 192.2 93.902 197.456 93.8126V48.6857Z" fill="#2DF02D"/>
</svg>
